<svg width="300" height="100" viewBox="0 0 300 100" fill="none" xmlns="http://www.w3.org/2000/svg">
<rect width="300" height="100" rx="15" fill="#F3F3F3"/>
<rect x="6.5" y="6.5" width="287" height="87" rx="8.5" stroke="#030303" stroke-width="3"/>
<circle cx="280" cy="50" r="5" fill="#030303"/>
<circle cx="20" cy="50" r="5" fill="#030303"/>
<path d="M44.5435 60H39.9299L46.9597 39.6364H52.508L59.5279 60H54.9142L49.8134 44.2898H49.6543L44.5435 60ZM44.2551 51.9957H55.1529V55.3565H44.2551V51.9957ZM74.557 39.6364H78.8624V52.8608C78.8624 54.3456 78.5078 55.6449 77.7985 56.7585C77.0958 57.8722 76.1114 58.7405 74.8453 59.3636C73.5793 59.9801 72.1043 60.2884 70.4206 60.2884C68.7303 60.2884 67.2521 59.9801 65.986 59.3636C64.7199 58.7405 63.7355 57.8722 63.0328 56.7585C62.3302 55.6449 61.9789 54.3456 61.9789 52.8608V39.6364H66.2843V52.4929C66.2843 53.2685 66.4533 53.9579 66.7914 54.5611C67.1361 55.1643 67.62 55.6383 68.2431 55.983C68.8662 56.3277 69.592 56.5 70.4206 56.5C71.2559 56.5 71.9817 56.3277 72.5982 55.983C73.2213 55.6383 73.7019 55.1643 74.04 54.5611C74.3846 53.9579 74.557 53.2685 74.557 52.4929V39.6364ZM81.6291 43.1861V39.6364H98.3535V43.1861H92.1191V60H87.8635V43.1861H81.6291ZM118.891 49.8182C118.891 52.0388 118.47 53.928 117.628 55.4858C116.793 57.0436 115.653 58.2334 114.208 59.0554C112.769 59.8707 111.152 60.2784 109.356 60.2784C107.546 60.2784 105.922 59.8674 104.483 59.0455C103.045 58.2235 101.908 57.0336 101.073 55.4759C100.238 53.9181 99.8201 52.0322 99.8201 49.8182C99.8201 47.5975 100.238 45.7083 101.073 44.1506C101.908 42.5928 103.045 41.4062 104.483 40.5909C105.922 39.7689 107.546 39.358 109.356 39.358C111.152 39.358 112.769 39.7689 114.208 40.5909C115.653 41.4062 116.793 42.5928 117.628 44.1506C118.47 45.7083 118.891 47.5975 118.891 49.8182ZM114.526 49.8182C114.526 48.3797 114.311 47.1667 113.88 46.179C113.456 45.1913 112.856 44.4422 112.08 43.9318C111.305 43.4214 110.396 43.1662 109.356 43.1662C108.315 43.1662 107.407 43.4214 106.631 43.9318C105.856 44.4422 105.252 45.1913 104.822 46.179C104.397 47.1667 104.185 48.3797 104.185 49.8182C104.185 51.2566 104.397 52.4697 104.822 53.4574C105.252 54.4451 105.856 55.1941 106.631 55.7045C107.407 56.215 108.315 56.4702 109.356 56.4702C110.396 56.4702 111.305 56.215 112.08 55.7045C112.856 55.1941 113.456 54.4451 113.88 53.4574C114.311 52.4697 114.526 51.2566 114.526 49.8182ZM127.785 43.1861V39.6364H144.51V43.1861H138.275V60H134.02V43.1861H127.785ZM147.264 60V39.6364H155.298C156.836 39.6364 158.148 39.9115 159.236 40.4616C160.329 41.0052 161.161 41.7775 161.731 42.7784C162.308 43.7727 162.596 44.9427 162.596 46.2884C162.596 47.6406 162.305 48.804 161.721 49.7784C161.138 50.7462 160.293 51.4886 159.186 52.0057C158.086 52.5227 156.753 52.7812 155.189 52.7812H149.809V49.321H154.493C155.315 49.321 155.997 49.2083 156.541 48.983C157.085 48.7576 157.489 48.4195 157.754 47.9688C158.026 47.518 158.162 46.9579 158.162 46.2884C158.162 45.6122 158.026 45.0421 157.754 44.5781C157.489 44.1141 157.081 43.7628 156.531 43.5241C155.988 43.2789 155.301 43.1562 154.473 43.1562H151.569V60H147.264ZM158.261 50.733L163.322 60H158.569L153.618 50.733H158.261ZM169.149 60H164.535L171.565 39.6364H177.113L184.133 60H179.52L174.419 44.2898H174.26L169.149 60ZM168.861 51.9957H179.758V55.3565H168.861V51.9957ZM203.595 46.7656H199.24C199.16 46.2022 198.998 45.7017 198.752 45.2642C198.507 44.8201 198.192 44.4422 197.808 44.1307C197.423 43.8191 196.979 43.5805 196.475 43.4148C195.978 43.2491 195.438 43.1662 194.855 43.1662C193.801 43.1662 192.883 43.428 192.1 43.9517C191.318 44.4687 190.712 45.2244 190.281 46.2188C189.85 47.2064 189.634 48.4062 189.634 49.8182C189.634 51.2699 189.85 52.4896 190.281 53.4773C190.718 54.465 191.328 55.2107 192.11 55.7145C192.892 56.2183 193.797 56.4702 194.825 56.4702C195.401 56.4702 195.935 56.3939 196.426 56.2415C196.923 56.089 197.364 55.867 197.748 55.5753C198.133 55.277 198.451 54.9157 198.703 54.4915C198.961 54.0672 199.14 53.5833 199.24 53.0398L203.595 53.0597C203.482 53.9943 203.2 54.8958 202.749 55.7642C202.305 56.6259 201.705 57.3982 200.95 58.081C200.201 58.7571 199.306 59.294 198.265 59.6918C197.231 60.0829 196.061 60.2784 194.755 60.2784C192.939 60.2784 191.315 59.8674 189.883 59.0455C188.458 58.2235 187.331 57.0336 186.502 55.4759C185.68 53.9181 185.269 52.0322 185.269 49.8182C185.269 47.5975 185.687 45.7083 186.522 44.1506C187.357 42.5928 188.491 41.4062 189.923 40.5909C191.355 39.7689 192.965 39.358 194.755 39.358C195.935 39.358 197.029 39.5237 198.036 39.8551C199.051 40.1866 199.949 40.6705 200.731 41.3068C201.513 41.9366 202.15 42.7088 202.64 43.6236C203.137 44.5384 203.455 45.5857 203.595 46.7656ZM206.682 60V39.6364H210.987V48.6151H211.256L218.584 39.6364H223.744L216.188 48.7543L223.834 60H218.683L213.105 51.6278L210.987 54.2131V60H206.682ZM225.987 60V39.6364H239.708V43.1861H230.292V48.0384H239.002V51.5881H230.292V56.4503H239.748V60H225.987ZM243.131 60V39.6364H251.165C252.703 39.6364 254.016 39.9115 255.103 40.4616C256.197 41.0052 257.028 41.7775 257.599 42.7784C258.175 43.7727 258.464 44.9427 258.464 46.2884C258.464 47.6406 258.172 48.804 257.589 49.7784C257.005 50.7462 256.16 51.4886 255.053 52.0057C253.953 52.5227 252.62 52.7812 251.056 52.7812H245.677V49.321H250.36C251.182 49.321 251.865 49.2083 252.408 48.983C252.952 48.7576 253.356 48.4195 253.621 47.9688C253.893 47.518 254.029 46.9579 254.029 46.2884C254.029 45.6122 253.893 45.0421 253.621 44.5781C253.356 44.1141 252.948 43.7628 252.398 43.5241C251.855 43.2789 251.169 43.1562 250.34 43.1562H247.437V60H243.131ZM254.128 50.733L259.189 60H254.437L249.485 50.733H254.128Z" fill="black"/>
</svg>
