<svg width="30" height="30" viewBox="0 0 30 30" fill="none" xmlns="http://www.w3.org/2000/svg">
<g clip-path="url(#clip0_1015_1516)">
<path d="M11.1729 3.52072C11.1729 2.46429 12.03 1.60715 13.0864 1.60715H26.4793C27.5357 1.60715 28.3928 2.46429 28.3928 3.52072V26.4793C28.3928 27.5357 27.5357 28.3929 26.4793 28.3929H19.7829" stroke="#F3F3F3" stroke-width="1.8" stroke-linecap="round" stroke-linejoin="round"/>
<path d="M5.43427 13.0864H9.32998C9.89825 13.0866 10.4432 13.3124 10.845 13.7143L16.2857 19.1572C16.6878 19.5583 17.2327 19.7833 17.8007 19.7829H20.7386M14.0421 11.6529C14.0421 12.5412 14.395 13.3931 15.0231 14.0212C15.6512 14.6493 16.5031 15.0022 17.3914 15.0022C18.2797 15.0022 19.1316 14.6493 19.7597 14.0212C20.3878 13.3931 20.7407 12.5412 20.7407 11.6529C20.7407 10.7646 20.3878 9.91269 19.7597 9.28457C19.1316 8.65646 18.2797 8.30359 17.3914 8.30359C16.5031 8.30359 15.6512 8.65646 15.0231 9.28457C14.395 9.91269 14.0421 10.7646 14.0421 11.6529Z" stroke="#F3F3F3" stroke-width="1.8" stroke-linecap="round" stroke-linejoin="round"/>
<path d="M13.0864 15.9557L7.97354 21.0686C7.57177 21.4705 7.02682 21.6963 6.45854 21.6964H1.60712" stroke="#F3F3F3" stroke-width="1.8" stroke-linecap="round" stroke-linejoin="round"/>
<path d="M9.25928 19.7829L12.4586 22.9822C12.8605 23.3839 13.0863 23.9289 13.0864 24.4972V28.3929" stroke="#F3F3F3" stroke-width="1.8" stroke-linecap="round" stroke-linejoin="round"/>
</g>
<defs>
<clipPath id="clip0_1015_1516">
<rect width="30" height="30" fill="white"/>
</clipPath>
</defs>
</svg>
