<svg width="30" height="30" viewBox="0 0 30 30" fill="none" xmlns="http://www.w3.org/2000/svg">
<path fill-rule="evenodd" clip-rule="evenodd" d="M8.75 2.1875C8.99864 2.1875 9.2371 2.28627 9.41291 2.46209C9.58873 2.6379 9.6875 2.87636 9.6875 3.125V4.07875C10.515 4.0625 11.4263 4.0625 12.43 4.0625H17.57C18.5737 4.0625 19.485 4.0625 20.3125 4.07875V3.125C20.3125 2.87636 20.4113 2.6379 20.5871 2.46209C20.7629 2.28627 21.0014 2.1875 21.25 2.1875C21.4986 2.1875 21.7371 2.28627 21.9129 2.46209C22.0887 2.6379 22.1875 2.87636 22.1875 3.125V4.15875C22.5125 4.18375 22.8204 4.21542 23.1112 4.25375C24.5763 4.45125 25.7625 4.86625 26.6987 5.80125C27.6337 6.7375 28.0487 7.92375 28.2463 9.38875C28.3079 9.85708 28.3525 10.3696 28.38 10.9263C28.448 11.1107 28.4563 11.3118 28.4037 11.5013C28.4375 12.5025 28.4375 13.6413 28.4375 14.93V17.5C28.4375 17.7486 28.3387 17.9871 28.1629 18.1629C27.9871 18.3387 27.7486 18.4375 27.5 18.4375C27.2514 18.4375 27.0129 18.3387 26.8371 18.1629C26.6613 17.9871 26.5625 17.7486 26.5625 17.5V15C26.5625 13.9325 26.5625 13.0037 26.5462 12.1875H3.45375C3.4375 13.0037 3.4375 13.9325 3.4375 15V17.5C3.4375 19.8837 3.44 21.5775 3.6125 22.8625C3.78125 24.1188 4.09875 24.8438 4.6275 25.3725C5.15625 25.9013 5.88125 26.2188 7.13875 26.3875C8.42375 26.56 10.1163 26.5625 12.5 26.5625H17.5C17.7486 26.5625 17.9871 26.6613 18.1629 26.8371C18.3387 27.0129 18.4375 27.2514 18.4375 27.5C18.4375 27.7486 18.3387 27.9871 18.1629 28.1629C17.9871 28.3387 17.7486 28.4375 17.5 28.4375H12.43C10.1325 28.4375 8.3125 28.4375 6.88875 28.2463C5.42375 28.0487 4.2375 27.6337 3.30125 26.6987C2.36625 25.7625 1.95125 24.5763 1.75375 23.1112C1.5625 21.6863 1.5625 19.8675 1.5625 17.57V14.93C1.5625 13.6413 1.5625 12.5025 1.59625 11.5C1.54409 11.3105 1.55283 11.1093 1.62125 10.925C1.64792 10.3692 1.69208 9.85708 1.75375 9.38875C1.95125 7.92375 2.36625 6.7375 3.30125 5.80125C4.2375 4.86625 5.42375 4.45125 6.88875 4.25375C7.18042 4.21542 7.48833 4.18375 7.8125 4.15875V3.125C7.8125 2.87636 7.91127 2.6379 8.08709 2.46209C8.2629 2.28627 8.50136 2.1875 8.75 2.1875ZM3.54 10.3125H26.46C26.44 10.0758 26.4158 9.85083 26.3875 9.6375C26.2188 8.38125 25.9013 7.65625 25.3725 7.1275C24.8438 6.59875 24.1187 6.28125 22.8612 6.1125C21.5775 5.94 19.8837 5.9375 17.5 5.9375H12.5C10.1163 5.9375 8.42375 5.94 7.1375 6.1125C5.88125 6.28125 5.15625 6.59875 4.6275 7.1275C4.09875 7.65625 3.78125 8.38125 3.6125 9.6375C3.58417 9.85 3.56 10.0746 3.54 10.3112M22.5 19.6875C21.7541 19.6875 21.0387 19.9838 20.5113 20.5113C19.9838 21.0387 19.6875 21.7541 19.6875 22.5C19.6875 23.2459 19.9838 23.9613 20.5113 24.4887C21.0387 25.0162 21.7541 25.3125 22.5 25.3125C23.2459 25.3125 23.9613 25.0162 24.4887 24.4887C25.0162 23.9613 25.3125 23.2459 25.3125 22.5C25.3125 21.7541 25.0162 21.0387 24.4887 20.5113C23.9613 19.9838 23.2459 19.6875 22.5 19.6875ZM17.8125 22.5C17.8127 21.7691 17.9838 21.0485 18.3122 20.3955C18.6405 19.7426 19.117 19.1755 19.7035 18.7395C20.2901 18.3035 20.9705 18.0106 21.6903 17.8844C22.4102 17.7582 23.1496 17.802 23.8495 18.0124C24.5494 18.2228 25.1904 18.594 25.7214 19.0962C26.2523 19.5985 26.6584 20.2179 26.9073 20.9051C27.1562 21.5923 27.241 22.3281 27.1548 23.0539C27.0687 23.7796 26.8141 24.4752 26.4112 25.085L28.1625 26.8375C28.2546 26.9233 28.3285 27.0268 28.3797 27.1418C28.431 27.2568 28.4585 27.381 28.4607 27.5068C28.463 27.6327 28.4398 27.7578 28.3927 27.8745C28.3455 27.9912 28.2753 28.0973 28.1863 28.1863C28.0973 28.2753 27.9912 28.3455 27.8745 28.3927C27.7578 28.4398 27.6327 28.463 27.5068 28.4607C27.381 28.4585 27.2568 28.431 27.1418 28.3797C27.0268 28.3285 26.9233 28.2546 26.8375 28.1625L25.085 26.4112C24.3785 26.8783 23.5586 27.1452 22.7125 27.1836C21.8664 27.222 21.0257 27.0305 20.2797 26.6293C19.5338 26.2281 18.9105 25.6323 18.4761 24.9052C18.0416 24.1782 17.8123 23.347 17.8125 22.5Z" fill="#F1F1F1"/>
</svg>
